<?xml version="1.0" encoding="utf-8"?>
<!-- Generator: Adobe Illustrator 23.0.6, SVG Export Plug-In . SVG Version: 6.00 Build 0)  -->
<svg version="1.1" id="Layer_1" xmlns="http://www.w3.org/2000/svg" xmlns:xlink="http://www.w3.org/1999/xlink" x="0px" y="0px"
	 viewBox="0 0 1366 768" style="enable-background:new 0 0 1366 768;" xml:space="preserve">
<style type="text/css">
	.st0{fill:none;stroke:#000000;stroke-miterlimit:10;}
	.st1{fill:url(#SVGID_1_);}
	.st2{fill:url(#SVGID_2_);}
	.st3{display:none;fill:none;stroke:#000000;stroke-miterlimit:10;}
	.st4{fill:url(#SVGID_3_);}
	.st5{fill:#54C5F8;}
	.st6{fill:#3F3C44;}
</style>
<path class="st0" d="M356.5,302"/>
<path class="st0" d="M291.5,404"/>
<g>
	<linearGradient id="SVGID_1_" gradientUnits="userSpaceOnUse" x1="485.2906" y1="290.3521" x2="513.2052" y2="394.4825">
		<stop  offset="0.2386" style="stop-color:#0071BC"/>
		<stop  offset="0.2876" style="stop-color:#0063A4"/>
		<stop  offset="0.5355" style="stop-color:#001C2F"/>
		<stop  offset="0.6451" style="stop-color:#000000"/>
	</linearGradient>
	<polygon class="st1" points="555.32,322.96 439.88,322.96 429.94,312.5 470.83,234 	"/>
	<linearGradient id="SVGID_2_" gradientUnits="userSpaceOnUse" x1="518.0073" y1="317.0509" x2="422.234" y2="406.1623">
		<stop  offset="0.4149" style="stop-color:#54C5F8"/>
		<stop  offset="0.4507" style="stop-color:#4CB9F2"/>
		<stop  offset="0.5147" style="stop-color:#369AE3"/>
		<stop  offset="0.5989" style="stop-color:#1469CA"/>
		<stop  offset="0.6428" style="stop-color:#004CBC"/>
	</linearGradient>
	<polygon class="st2" points="555.32,322.96 514.44,401.46 499.05,401.46 424.5,322.96 	"/>
	<polygon class="st3" points="654.44,322.96 639.06,322.96 644.5,312.5 	"/>
	<linearGradient id="SVGID_3_" gradientUnits="userSpaceOnUse" x1="432.5325" y1="372.2044" x2="479.0104" y2="488.6498">
		<stop  offset="0.2386" style="stop-color:#0071BC"/>
		<stop  offset="0.2882" style="stop-color:#0063A4"/>
		<stop  offset="0.5392" style="stop-color:#001C2F"/>
		<stop  offset="0.6502" style="stop-color:#000000"/>
	</linearGradient>
	<polygon class="st4" points="508.99,411.93 394.63,411.93 383.61,401.46 424.5,322.96 499.05,401.46 	"/>
	<polygon class="st3" points="609.19,411.93 592.72,411.93 598.17,401.46 	"/>
	<polygon class="st5" points="508.99,411.93 470.83,485.19 340,485.19 378.16,411.93 	"/>
	<polygon class="st3" points="729,401.46 723.55,411.93 713.61,401.46 	"/>
	<line class="st0" x1="424.5" y1="322.96" x2="424.49" y2="322.96"/>
	<path class="st0" d="M548.02,401.46"/>
</g>
<g>
	<path class="st6" d="M659.47,339.77h-45.12v22.32h44.52v15.12h-44.52v42.48h-18.24v-95.88h63.36V339.77z"/>
	<path class="st6" d="M698.35,419.33c-1.36,0.64-2.9,1.16-4.62,1.56c-1.72,0.4-3.5,0.6-5.34,0.6c-2.56,0-5.02-0.34-7.38-1.02
		c-2.36-0.68-4.42-1.78-6.18-3.3c-1.76-1.52-3.16-3.5-4.2-5.94c-1.04-2.44-1.56-5.38-1.56-8.82v-82.32h17.64v79.32
		c0,2.88,0.58,4.86,1.74,5.94c1.16,1.08,2.54,1.62,4.14,1.62c2,0,3.92-0.6,5.76-1.8V419.33z"/>
	<path class="st6" d="M724.75,338.21h-18v-18h18V338.21z M724.51,419.69h-17.52v-69.48h17.52V419.69z"/>
	<path class="st6" d="M804.67,419.69h-17.64v-3.6c-2.24,1.84-4.68,3.18-7.32,4.02c-2.64,0.84-5.44,1.26-8.4,1.26
		c-4.88,0-9.36-0.98-13.44-2.94c-4.08-1.96-7.6-4.6-10.56-7.92c-2.96-3.32-5.26-7.18-6.9-11.58c-1.64-4.4-2.46-9.04-2.46-13.92
		c0-5.2,0.94-10.02,2.82-14.46c1.88-4.44,4.38-8.3,7.5-11.58c3.12-3.28,6.68-5.86,10.68-7.74c4-1.88,8.12-2.82,12.36-2.82
		c2.96,0,5.84,0.4,8.64,1.2c2.8,0.8,5.2,1.92,7.2,3.36v-32.88h17.52V419.69z M787.27,401.09v-33.36c-0.8-0.56-1.73-1.1-2.77-1.62
		c-1.04-0.52-2.13-0.96-3.25-1.32c-1.13-0.36-2.25-0.64-3.37-0.84c-1.13-0.2-2.13-0.3-3.01-0.3c-2.89,0-5.52,0.5-7.89,1.5
		c-2.37,1-4.44,2.44-6.2,4.32c-1.77,1.88-3.13,4.14-4.1,6.78s-1.45,5.56-1.45,8.76c0,3.12,0.48,5.98,1.45,8.58
		c0.96,2.6,2.29,4.84,3.98,6.72c1.69,1.88,3.71,3.34,6.08,4.38c2.37,1.04,4.96,1.56,7.77,1.56
		C779.08,406.25,783.34,404.53,787.27,401.09z"/>
	<path class="st6" d="M882.79,364.01h-7.32c1.84,3.6,2.76,7.44,2.76,11.52c0,3.12-0.58,6.14-1.74,9.06
		c-1.16,2.92-2.82,5.58-4.98,7.98c-2.16,2.4-4.78,4.44-7.86,6.12c-3.08,1.68-6.54,2.8-10.38,3.36c-2.64,0.4-4.62,1.02-5.94,1.86
		s-1.98,1.68-1.98,2.52s0.66,1.62,1.98,2.34s3.3,1.2,5.94,1.44c8.96,0.8,15.9,3.04,20.82,6.72s7.38,8.56,7.38,14.64
		c0,3.12-0.76,6-2.27,8.64c-1.51,2.64-3.69,4.92-6.52,6.84c-2.83,1.92-6.24,3.4-10.22,4.44c-3.99,1.04-8.45,1.56-13.39,1.56
		c-5.02,0-9.55-0.52-13.57-1.56c-4.03-1.04-7.47-2.5-10.34-4.38c-2.87-1.88-5.06-4.14-6.58-6.78c-1.52-2.64-2.27-5.56-2.27-8.76
		c0-4.8,1.37-8.82,4.11-12.06c2.74-3.24,7.21-5.66,13.4-7.26c-1.92-0.72-3.3-1.7-4.14-2.94c-0.84-1.24-1.22-2.5-1.14-3.78
		c0.08-1.28,0.62-2.5,1.62-3.66c1-1.16,2.42-2.06,4.27-2.7c-2.1-0.96-4.09-2.2-5.98-3.72c-1.89-1.52-3.61-3.28-5.14-5.28
		c-1.53-2-2.74-4.24-3.62-6.72c-0.89-2.48-1.33-5.12-1.33-7.92c0-3.76,0.8-7.28,2.4-10.56c1.6-3.28,3.76-6.14,6.48-8.58
		c2.72-2.44,5.88-4.36,9.48-5.76c3.6-1.4,7.4-2.1,11.4-2.1c3.92,0,7.56,0.6,10.92,1.8h23.76V364.01z M864.19,431.57
		c0-2.8-1.42-4.84-4.24-6.12c-2.83-1.28-6.47-1.92-10.94-1.92c-4.78,0-8.55,0.68-11.3,2.04c-2.75,1.36-4.12,3.36-4.12,6
		c0,2.72,1.43,4.76,4.3,6.12c2.87,1.36,6.57,2.04,11.12,2.04c4.62,0,8.31-0.66,11.06-1.98
		C862.81,436.43,864.19,434.37,864.19,431.57z M860.95,375.53c0-1.76-0.34-3.4-1.01-4.92c-0.67-1.52-1.59-2.86-2.73-4.02
		c-1.15-1.16-2.5-2.08-4.04-2.76c-1.54-0.68-3.19-1.02-4.93-1.02c-1.74,0-3.37,0.34-4.87,1.02c-1.51,0.68-2.83,1.6-3.98,2.76
		c-1.15,1.16-2.06,2.5-2.73,4.02c-0.67,1.52-1.01,3.16-1.01,4.92c0,1.76,0.34,3.42,1.01,4.98c0.67,1.56,1.58,2.92,2.73,4.08
		c1.15,1.16,2.48,2.08,3.98,2.76c1.5,0.68,3.13,1.02,4.87,1.02c1.74,0,3.39-0.34,4.93-1.02c1.54-0.68,2.89-1.6,4.04-2.76
		c1.15-1.16,2.06-2.52,2.73-4.08C860.61,378.95,860.95,377.29,860.95,375.53z"/>
	<path class="st6" d="M962.83,384.89c0,1.12-0.06,2.28-0.18,3.48c-0.12,1.2-0.26,2.44-0.42,3.72h-55.44c0.64,2,1.54,3.9,2.7,5.7
		c1.16,1.8,2.58,3.36,4.26,4.68c1.68,1.32,3.58,2.36,5.7,3.12c2.12,0.76,4.46,1.14,7.02,1.14c3.12,0,6.24-0.54,9.36-1.62
		s5.72-2.54,7.8-4.38l10.92,10.92c-4.8,3.6-9.5,6.14-14.1,7.62c-4.6,1.48-9.46,2.22-14.58,2.22c-5.2,0-10.06-0.96-14.58-2.88
		c-4.52-1.92-8.44-4.52-11.76-7.8c-3.32-3.28-5.94-7.14-7.86-11.58s-2.88-9.18-2.88-14.22c0-5.04,0.96-9.78,2.88-14.22
		s4.56-8.3,7.92-11.58c3.36-3.28,7.28-5.88,11.76-7.8c4.48-1.92,9.28-2.88,14.4-2.88c4.88,0,9.56,0.9,14.04,2.7
		c4.48,1.8,8.44,4.3,11.88,7.5c3.44,3.2,6.16,7.02,8.16,11.46C961.83,374.63,962.83,379.53,962.83,384.89z M944.71,378.17
		c-1.36-4.4-3.78-7.94-7.26-10.62c-3.48-2.68-7.42-4.02-11.82-4.02c-4.32,0-8.2,1.34-11.64,4.02c-3.44,2.68-5.84,6.22-7.2,10.62
		H944.71z"/>
	<path class="st6" d="M1012.27,418.13c-1.76,1.12-3.8,1.96-6.12,2.52c-2.32,0.56-4.64,0.84-6.96,0.84c-4.08,0-7.52-0.5-10.32-1.5
		c-2.8-1-5.04-2.54-6.72-4.62c-1.68-2.08-2.9-4.72-3.66-7.92c-0.76-3.2-1.14-6.96-1.14-11.28v-30.36h-9.12v-7.8
		c5.6-2.32,10.14-5.76,13.62-10.32c3.48-4.56,5.86-10.48,7.14-17.76h5.64v20.28h17.52v15.6h-17.52v31.56c0,1.76,0.22,3.2,0.66,4.32
		c0.44,1.12,1.02,2,1.74,2.64c0.72,0.64,1.54,1.08,2.46,1.32c0.92,0.24,1.9,0.36,2.94,0.36c1.36,0,3-0.24,4.92-0.72
		c1.92-0.48,3.56-1.28,4.92-2.4V418.13z"/>
</g>
<g>
</g>
<g>
</g>
<g>
</g>
<g>
</g>
<g>
</g>
<g>
</g>
<g>
</g>
<g>
</g>
<g>
</g>
<g>
</g>
<g>
</g>
<g>
</g>
<g>
</g>
<g>
</g>
<g>
</g>
</svg>
